<?xml version="1.0" standalone="no"?>
<!DOCTYPE svg PUBLIC "-//W3C//DTD SVG 20010904//EN"
 "http://www.w3.org/TR/2001/REC-SVG-20010904/DTD/svg10.dtd">
<svg version="1.0" xmlns="http://www.w3.org/2000/svg"
 width="512.000000pt" height="512.000000pt" viewBox="0 0 512.000000 512.000000"
 preserveAspectRatio="xMidYMid meet">

<g transform="translate(0.000000,512.000000) scale(0.100000,-0.100000)"
fill="#000000" stroke="none">
<path d="M2290 3259 c-288 -15 -804 -49 -809 -54 -7 -7 9 -7 424 16 209 11
565 23 791 26 436 6 527 2 924 -42 311 -35 356 -37 176 -10 -401 60 -496 68
-931 70 -225 2 -484 -1 -575 -6z"/>
<path d="M1438 3193 c6 -2 18 -2 25 0 6 3 1 5 -13 5 -14 0 -19 -2 -12 -5z"/>
<path d="M3973 3163 c9 -2 25 -2 35 0 9 3 1 5 -18 5 -19 0 -27 -2 -17 -5z"/>
<path d="M4048 3153 c6 -2 18 -2 25 0 6 3 1 5 -13 5 -14 0 -19 -2 -12 -5z"/>
<path d="M1200 3135 c-229 -49 -447 -198 -579 -395 -102 -153 -152 -320 -152
-510 0 -247 85 -461 253 -636 121 -126 253 -206 420 -255 105 -30 315 -37 429
-15 304 62 552 268 676 565 l31 76 339 97 c636 183 808 221 1257 283 275 38
281 45 13 15 -445 -50 -690 -105 -1352 -304 -137 -41 -250 -74 -251 -73 -1 1
4 34 12 72 16 84 18 249 3 331 -67 379 -359 677 -737 750 -92 18 -276 17 -362
-1z m184 -72 c-23 -44 -25 -56 -21 -133 6 -117 50 -243 143 -407 90 -159 177
-341 210 -440 49 -144 22 -318 -70 -455 -84 -125 -158 -152 -294 -109 -127 42
-195 111 -225 232 -26 106 -47 327 -46 485 1 118 -3 171 -20 254 -48 232 -71
292 -148 393 -53 68 -57 61 78 131 117 62 231 92 351 95 l67 1 -25 -47z m231
20 c33 -8 97 -32 142 -53 236 -110 393 -290 479 -550 26 -79 28 -97 28 -245 1
-180 -9 -229 -74 -371 -51 -111 -104 -186 -191 -270 -171 -163 -370 -244 -606
-244 -61 0 -143 7 -181 15 -346 72 -615 341 -687 687 -8 38 -15 120 -15 182 0
241 87 451 257 619 l69 68 56 -78 c67 -94 79 -127 120 -313 28 -129 31 -161
29 -294 -1 -157 19 -376 45 -486 35 -146 126 -235 279 -276 139 -37 233 4 320
141 91 142 119 313 75 456 -30 102 -126 309 -215 464 -76 134 -126 264 -144
372 -11 72 -5 103 35 162 27 42 28 43 73 36 25 -3 73 -13 106 -22z"/>
<path d="M3430 2974 c-30 -2 -127 -8 -215 -14 -312 -21 -592 -53 -815 -94
-113 -21 -62 -19 101 4 155 22 455 52 714 71 182 14 547 17 805 7 l175 -6
-130 13 c-133 14 -536 26 -635 19z"/>
<path d="M4228 2933 c12 -2 32 -2 45 0 12 2 2 4 -23 4 -25 0 -35 -2 -22 -4z"/>
<path d="M2288 2843 c6 -2 18 -2 25 0 6 3 1 5 -13 5 -14 0 -19 -2 -12 -5z"/>
<path d="M3644 2809 c4 -19 15 -95 26 -169 27 -178 29 -190 44 -190 10 0 10
18 -2 86 -8 47 -12 87 -11 88 2 2 25 6 51 9 l46 6 6 -37 c3 -20 8 -58 12 -84
4 -32 11 -48 21 -48 10 0 12 8 8 33 -10 59 -45 312 -45 325 0 6 -7 12 -16 12
-13 0 -15 -7 -11 -29 3 -15 9 -51 13 -79 l6 -50 -46 -7 c-26 -4 -48 -6 -50 -4
-2 2 -10 40 -17 83 -8 46 -19 81 -27 84 -10 3 -12 -4 -8 -29z"/>
<path d="M3852 2808 c3 -18 13 -99 23 -180 13 -104 23 -148 32 -148 7 0 16 12
20 28 68 270 67 270 81 88 5 -70 11 -101 21 -104 11 -4 12 13 6 94 -4 55 -12
133 -19 174 -17 114 -33 101 -72 -55 -17 -71 -32 -125 -33 -120 -5 42 -32 214
-36 233 -8 35 -28 27 -23 -10z"/>
<path d="M4089 2819 c-20 -20 -21 -29 -16 -125 6 -133 26 -179 77 -179 28 0
38 6 57 34 25 37 31 75 11 69 -7 -3 -14 -14 -16 -25 -2 -12 -12 -29 -23 -39
-26 -24 -50 -10 -66 40 -14 41 -20 176 -9 194 4 7 21 12 37 12 25 0 33 -6 45
-35 16 -39 34 -46 34 -14 0 12 -15 36 -34 55 -39 39 -67 43 -97 13z"/>
<path d="M3338 2823 c-39 -3 -48 -8 -48 -23 0 -26 37 -282 51 -347 10 -49 13
-53 38 -53 55 0 91 12 91 30 0 25 -7 28 -53 19 -50 -9 -53 -5 -62 74 -8 66 -1
77 48 77 29 0 32 6 17 30 -6 9 -21 14 -43 12 -19 -2 -37 0 -40 5 -3 4 -8 36
-12 71 l-7 62 47 0 c42 0 46 2 43 22 -3 25 -6 25 -70 21z"/>
<path d="M3444 2803 c3 -16 18 -108 32 -205 20 -127 32 -178 41 -178 16 0 16
-3 -2 99 -8 47 -14 86 -12 87 1 1 23 5 48 9 l47 7 12 -74 c15 -92 19 -108 31
-108 13 0 12 14 -19 209 -19 118 -32 176 -42 179 -10 4 -12 -4 -7 -34 3 -22 9
-60 13 -86 l6 -48 -36 -1 c-20 -1 -41 -2 -48 -3 -13 -1 -23 34 -33 117 -5 41
-11 57 -22 57 -11 0 -13 -7 -9 -27z"/>
<path d="M4300 2777 c0 -29 -9 -87 -20 -128 -34 -126 -36 -136 -18 -121 9 7
19 28 22 47 4 19 13 35 20 35 8 0 28 3 45 6 29 6 31 5 31 -22 0 -16 4 -36 10
-44 17 -27 23 17 12 87 -13 78 -64 193 -86 193 -13 0 -16 -12 -16 -53z m69
-108 c1 -11 -9 -18 -29 -21 l-30 -5 6 51 c9 80 14 86 34 36 11 -25 19 -52 19
-61z"/>
<path d="M3173 2812 c-59 -3 -63 -4 -63 -27 0 -22 5 -25 34 -25 33 0 33 -1 39
-52 22 -179 50 -328 64 -328 9 0 12 7 9 18 -4 15 -56 352 -56 367 0 3 14 5 31
5 26 0 30 3 27 22 -4 25 -4 25 -85 20z"/>
<path d="M2930 2627 c0 -90 -3 -198 -6 -240 -6 -67 -5 -77 10 -77 13 0 16 11
16 64 0 36 3 67 8 69 4 3 22 7 41 9 32 3 34 1 46 -40 21 -69 25 -76 36 -65 11
11 -126 443 -141 443 -6 0 -10 -65 -10 -163z m79 -109 c1 -13 -7 -18 -29 -18
l-30 0 1 103 1 102 28 -85 c16 -47 29 -93 29 -102z"/>
<path d="M2768 2773 c-16 -2 -28 -8 -28 -12 0 -4 9 -52 21 -107 11 -54 29
-159 38 -233 11 -91 21 -136 30 -139 17 -6 10 68 -25 282 -14 81 -23 150 -20
153 2 3 23 7 45 10 42 6 46 10 35 37 -6 16 -34 18 -96 9z"/>
<path d="M2655 2602 c-4 -87 -10 -174 -15 -193 l-8 -34 -1 30 c-1 31 -41 231
-61 304 -13 49 -35 57 -27 9 3 -18 17 -82 31 -142 14 -59 30 -162 37 -227 11
-109 18 -134 33 -110 9 14 36 252 37 326 l1 70 13 -42 c7 -22 21 -101 30 -175
18 -150 22 -165 35 -152 11 12 -13 212 -45 368 -14 65 -25 120 -25 122 0 2 -6
4 -14 4 -10 0 -15 -34 -21 -158z"/>
<path d="M2420 2733 c-25 -3 -48 -7 -52 -11 -4 -4 7 -59 24 -122 34 -127 51
-331 29 -353 -6 -6 -11 -27 -11 -46 l0 -35 21 21 c41 41 36 226 -11 406 -10
39 -18 73 -16 74 1 2 16 6 34 9 30 6 31 5 46 -47 25 -82 45 -193 56 -308 10
-105 14 -120 27 -108 24 25 -63 518 -92 522 -5 1 -30 0 -55 -2z"/>
<path d="M4148 2383 c7 -3 16 -2 19 1 4 3 -2 6 -13 5 -11 0 -14 -3 -6 -6z"/>
<path d="M4568 2293 c6 -2 18 -2 25 0 6 3 1 5 -13 5 -14 0 -19 -2 -12 -5z"/>
<path d="M4503 2283 c9 -2 23 -2 30 0 6 3 -1 5 -18 5 -16 0 -22 -2 -12 -5z"/>
<path d="M4425 2273 c-11 -2 -150 -34 -309 -70 -365 -82 -639 -156 -881 -238
-242 -81 -1160 -434 -1152 -442 2 -2 255 91 563 206 307 115 619 228 693 251
181 56 550 154 866 229 143 34 265 64 270 66 14 5 -26 4 -50 -2z"/>
<path d="M2040 1510 c-8 -5 -10 -10 -5 -10 6 0 17 5 25 10 8 5 11 10 5 10 -5
0 -17 -5 -25 -10z"/>
</g>
</svg>
